<svg width="512" height="512" viewBox="0 0 512 512" fill="none" xmlns="http://www.w3.org/2000/svg">
<path fill-rule="evenodd" clip-rule="evenodd" d="M348.662 145.379L403.982 209.39C405.912 211.589 406.81 214.509 406.447 217.412L394.873 303.108C394.565 305.379 393.506 307.483 391.865 309.083L341.977 357.091C341.553 357.537 341.075 357.93 340.556 358.261L261.629 410.364C259.965 411.492 257.998 412.089 255.988 412.077C253.99 412.096 252.034 411.498 250.389 410.364L171.462 358.094C170.93 357.764 170.439 357.371 170 356.924L120.153 309.083C118.5 307.486 117.426 305.384 117.103 303.108L105.571 217.412C105.197 214.515 106.079 211.595 107.995 209.39L163.356 145.379C166.378 141.889 171.373 140.876 175.515 142.914L255.988 181.939L336.503 142.914C340.647 140.891 345.633 141.902 348.662 145.379ZM167.535 210.393L232.674 193.178L175.223 165.393L167.535 210.393ZM344.818 210.393L337.13 165.393L279.554 193.178L344.818 210.393ZM133.942 210.977L155.125 212.315L160.599 180.142L133.942 210.977ZM378.745 210.977L352.046 180.142L357.562 212.314L378.745 210.977ZM250.222 286.019V201.618L249.387 201.368L172.883 221.632L250.222 286.019ZM263.008 201.367L262.465 201.618L262.13 286.019L339.47 221.632L263.008 201.367ZM151.49 224.348L127.215 222.802L133.231 270.016L151.49 224.348ZM360.862 224.557L378.912 270.016L385.138 223.011L360.862 224.557ZM181.908 339.25L245.668 298.47L167.994 233.498L181.908 339.25ZM343.982 233.498L266.267 298.47L330.11 339.25L343.982 233.498ZM355.222 243.066L344.233 326.632L375.277 296.757L375.528 294.919L355.222 243.066ZM157.047 243.15L136.741 295.002L136.866 296.841L167.994 326.715L157.047 243.15ZM249.846 385.503V310.294L192.061 347.272L249.846 385.503ZM319.916 347.272L262.089 310.295L262.13 385.587L319.916 347.272ZM199.135 121.397C217.233 113.742 236.188 109.914 256 109.914C275.811 109.914 294.767 113.742 312.865 121.397C320.967 124.823 328.639 128.904 335.881 133.638L333.776 134.304L332.564 134.787L330.609 135.734L327.9 137.047L323.469 139.195C318.666 136.422 313.672 133.939 308.488 131.746C291.789 124.683 274.293 121.151 256 121.151C237.707 121.151 220.211 124.683 203.512 131.746C198.33 133.938 193.339 136.42 188.537 139.192L179.456 134.788L178.976 134.572L177.771 134.072L176.175 133.601C183.401 128.883 191.054 124.814 199.135 121.397ZM359.3 359.3C345.822 372.778 330.343 383.213 312.865 390.606C309.106 392.195 305.311 393.62 301.478 394.88L325.433 379.066L332.97 374.091L345.532 365.798L346.298 365.233L347.718 364.062L348.238 363.599L368.921 343.695L374.395 338.428L378.605 334.377L380.437 332.614C374.507 342.243 367.461 351.138 359.3 359.3ZM199.135 390.606C181.657 383.213 166.179 372.778 152.701 359.3C144.496 351.095 137.419 342.149 131.47 332.462L136.544 337.332L137.683 338.426L159.402 359.271L161.574 361.355L163.746 363.44L164.358 363.976L165.821 365.146L166.476 365.624L185.165 378.001L210.264 394.623L210.779 394.964C206.859 393.684 202.978 392.231 199.135 390.606Z" fill="#005587"/>
<path d="M41.448 233L42.3586 226.65C42.9771 221.917 44.8842 219.267 48.0798 218.7C49.1221 218.508 50.2468 218.511 51.4541 218.71C52.6613 218.908 53.7219 219.271 54.6358 219.799C55.5496 220.327 56.3073 221.016 56.9087 221.865C58.1735 223.694 58.5814 226.033 58.1327 228.882L57.5863 232.692L64.7625 233.721L64.3941 236.29L41.448 233ZM55.9178 228.565C56.3779 225.567 55.5578 223.44 53.4573 222.184C52.7909 221.787 52.0084 221.517 51.1098 221.373C50.2112 221.229 49.4015 221.218 48.6807 221.341C47.9598 221.464 47.3265 221.747 46.7805 222.191C45.6789 223.078 44.9628 224.673 44.6325 226.976L44.0904 230.757L55.3715 232.374L55.9178 228.565Z" fill="#005587"/>
<path d="M49.1125 195.563L50.0634 192.391L74.8937 190.288L74.0456 193.117L67.1976 193.571L64.0666 204.016L69.544 208.134L68.6917 210.978L49.1125 195.563ZM64.9059 193.787L58.2521 194.269C57.2882 194.333 56.4543 194.379 55.7504 194.407L53.6472 194.462C52.9491 194.47 52.2056 194.491 51.4169 194.525C51.98 194.932 52.5506 195.332 53.1289 195.723C53.1289 195.723 53.7395 196.145 54.9608 196.989C54.9608 196.989 57.3992 198.846 62.276 202.561L64.9059 193.787Z" fill="#005587"/>
<path d="M82.2206 173.298L63.5038 164.238L60.1764 171.113L58.0281 170.073L65.7618 154.095L67.9101 155.135L64.6346 161.902L83.3515 170.962L82.2206 173.298Z" fill="#005587"/>
<path d="M73.9133 140.154L75.3129 137.986L94.7885 150.558L93.389 152.726L73.9133 140.154Z" fill="#005587"/>
<path d="M84.9773 124.397L93.3762 114.173L95.1352 115.792L88.4596 123.918L94.4532 128.842L100.428 121.569L102.249 123.065L96.2743 130.338L102.694 135.612L109.55 127.267L111.468 128.669L102.889 139.112L84.9773 124.397Z" fill="#005587"/>
<path d="M103.582 103.26L106.406 100.667L125.152 106.684L128.954 108.135L114.923 92.8492L116.824 91.104L132.5 108.181L129.708 110.743L110.847 104.71L107.137 103.317L121.159 118.591L119.258 120.336L103.582 103.26Z" fill="#005587"/>
<path d="M148.878 96.1447L137.403 78.8035L131.034 83.0181L129.717 81.0278L144.52 71.2319L145.837 73.2223L139.568 77.3712L151.043 94.7124L148.878 96.1447Z" fill="#005587"/>
<path d="M185.593 76.6715L178.125 54.7265L180.568 53.8951L183.773 63.3143L195.734 59.2441L192.529 49.825L194.972 48.9937L202.44 70.9387L199.997 71.77L196.474 61.4189L184.513 65.4891L188.036 75.8402L185.593 76.6715Z" fill="#005587"/>
<path d="M211.606 44.8031L224.635 42.4976L224.919 44.8711L214.563 46.7036L215.915 54.3417L225.183 52.7016L225.594 55.0224L216.325 56.6625L217.773 64.8441L228.408 62.9622L228.953 65.2743L215.645 67.6292L211.606 44.8031Z" fill="#005587"/>
<path d="M246.826 40.6787L250.135 40.564L260.077 63.4141L257.125 63.5164L254.502 57.1743L243.605 57.552L241.457 64.0595L238.49 64.1623L246.826 40.6787ZM253.564 55.0724L250.977 48.9231C250.608 48.0304 250.298 47.2551 250.046 46.5971L249.321 44.6222C249.089 43.9635 248.831 43.266 248.547 42.5296C248.341 43.1934 248.145 43.8619 247.959 44.535C247.959 44.535 247.755 45.2486 247.347 46.6757C247.347 46.6757 246.368 49.5804 244.41 55.3897L253.564 55.0724Z" fill="#005587"/>
<path d="M271.066 63.9675L273.649 40.9312L276.214 41.2188L273.9 61.8537L284.469 63.0391L284.096 65.429L271.066 63.9675Z" fill="#005587"/>
<path d="M303.894 69.6023L309.19 49.494L301.805 47.5487L302.413 45.2407L319.578 49.7619L318.97 52.0699L311.7 50.155L306.404 70.2634L303.894 69.6023Z" fill="#005587"/>
<path d="M325.835 76.4464L335.237 55.2578L337.596 56.3045L333.56 65.3989L345.109 70.5233L349.145 61.4289L351.503 62.4756L342.102 83.6641L339.743 82.6175L344.177 72.6231L332.629 67.4987L328.194 77.493L325.835 76.4464Z" fill="#005587"/>
<path d="M380.667 98.2819C380.401 98.1213 380.027 97.8492 379.544 97.4656L376.893 95.359L371.594 102.027L369.573 100.422L383.995 82.2734L388.935 86.199C392.569 89.0106 393.815 91.8549 392.672 94.7319C392.314 95.6292 391.782 96.5146 391.075 97.3882C389.899 98.7402 388.654 99.6116 387.34 100.003C386.026 100.394 384.59 100.275 383.032 99.6463L382.891 100.83C382.835 101.396 382.786 102.042 382.741 102.769L382.629 109.12L379.548 108.729C379.72 107.698 379.864 106.637 379.98 105.548L380.513 100.274C380.581 99.6295 380.632 98.9654 380.667 98.2819ZM380.955 95.6904C383.365 97.6441 385.451 98.1521 387.212 97.2145C387.826 96.8895 388.411 96.3979 388.965 95.7399C389.52 95.0819 389.915 94.4404 390.152 93.8153C390.388 93.1901 390.452 92.5617 390.345 91.93C390.146 90.6291 389.2 89.3183 387.506 87.9975L384.586 85.6774L378.304 93.5838L380.955 95.6904Z" fill="#005587"/>
<path d="M407.919 102.755L417.022 112.357L415.198 113.902L407.962 106.27L402.333 111.607L408.809 118.438L407.099 120.059L400.623 113.229L394.593 118.945L402.024 126.782L400.395 128.512L391.096 118.704L407.919 102.755Z" fill="#005587"/>
<path d="M413.431 145.853C409.153 139.877 410.225 134.591 416.645 129.995C421.861 126.262 426.401 126.044 430.267 129.343C431.097 130.058 431.859 130.9 432.553 131.871C433.891 133.739 434.842 135.846 435.409 138.192L433.154 138.834C432.613 136.677 431.885 134.96 430.97 133.683C430.056 132.405 429.174 131.443 428.326 130.797C427.478 130.15 426.524 129.76 425.462 129.627C423.445 129.372 421.024 130.218 418.199 132.166C415.663 134.056 414.142 135.964 413.638 137.89C413.118 139.95 413.701 142.156 415.386 144.509C416.543 146.126 418.144 147.567 420.186 148.832L418.815 150.786C416.632 149.462 414.838 147.818 413.431 145.853Z" fill="#005587"/>
<path d="M433.416 155.05C435.096 154.207 436.713 153.693 438.267 153.509C439.821 153.324 441.273 153.434 442.621 153.836C445.375 154.669 447.481 156.538 448.939 159.445C450.477 162.512 450.721 165.327 449.671 167.89C448.638 170.422 446.428 172.537 443.041 174.236C439.744 175.89 436.698 176.284 433.904 175.416C431.176 174.57 429.081 172.689 427.619 169.774C426.152 166.849 425.917 164.085 426.914 161.482C427.924 158.862 430.092 156.717 433.416 155.05ZM434.58 157.436C433.198 158.118 432.058 158.891 431.161 159.752C430.264 160.614 429.618 161.539 429.223 162.527C428.43 164.516 428.624 166.644 429.806 168.91C430.952 171.15 432.568 172.542 434.654 173.086C436.817 173.648 439.266 173.22 442.004 171.802C447.568 168.922 449.133 165.055 446.698 160.202C445.588 157.989 443.976 156.639 441.863 156.152C439.737 155.662 437.309 156.089 434.58 157.436Z" fill="#005587"/>
<path d="M447.868 195.884C447.739 195.602 447.583 195.166 447.401 194.577L446.398 191.343L438.262 193.865L437.498 191.4L459.639 184.535L461.508 190.562C462.925 194.933 462.351 197.984 459.786 199.717C458.985 200.256 458.046 200.688 456.97 201.011C455.237 201.465 453.717 201.484 452.411 201.066C451.105 200.649 449.986 199.741 449.053 198.344L448.269 199.243C447.905 199.678 447.499 200.184 447.053 200.76L443.382 205.943L441.057 203.884C441.78 203.129 442.497 202.334 443.206 201.5L446.618 197.443C447.038 196.949 447.454 196.429 447.868 195.884ZM449.566 193.905C450.457 196.878 451.893 198.473 453.877 198.691C454.567 198.768 455.327 198.692 456.156 198.461C456.985 198.23 457.673 197.922 458.221 197.539C458.768 197.156 459.175 196.673 459.442 196.091C460.012 194.904 459.969 193.288 459.314 191.242L458.209 187.68L448.563 190.671L449.566 193.905Z" fill="#005587"/>
<path d="M444.946 218.501L467.872 215.07L468.936 222.181C469.779 227.817 468.051 231.554 463.751 233.394C462.389 233.97 460.828 234.39 459.067 234.653L458.462 234.744C455.01 235.26 452.204 234.72 450.045 233.122C447.863 231.508 446.512 228.965 445.992 225.493L444.946 218.501ZM447.644 220.706L448.309 225.147C448.707 227.812 449.796 229.746 451.575 230.948C453.287 232.109 455.451 232.494 458.067 232.103L458.672 232.012C461.801 231.484 463.995 230.492 465.256 229.036C466.576 227.512 467.023 225.323 466.596 222.471L465.923 217.971L447.644 220.706Z" fill="#005587"/>
<path d="M64.1875 275.74L65.0981 282.089C65.8348 286.806 64.7494 289.885 61.8418 291.326C60.8955 291.804 59.8152 292.117 58.6009 292.266C57.3866 292.415 56.2667 292.365 55.2413 292.115C54.2159 291.865 53.2952 291.417 52.4792 290.77C50.7514 289.371 49.7025 287.241 49.3324 284.38L48.7861 280.571L41.6099 281.6L41.2415 279.031L64.1875 275.74ZM51.5473 284.063C51.9484 287.069 53.3332 288.88 55.7019 289.495C56.453 289.688 57.28 289.728 58.1828 289.613C59.0856 289.499 59.8657 289.282 60.523 288.961C61.1803 288.641 61.7085 288.191 62.1076 287.611C62.9156 286.451 63.1545 284.719 62.8241 282.415L62.282 278.635L51.001 280.253L51.5473 284.063Z" fill="#005587"/>
<path d="M71.1173 309.841L72.0682 313.013L52.4891 328.428L51.6411 325.599L57.1099 321.453L53.9789 311.008L47.1394 310.582L46.2871 307.738L71.1173 309.841ZM58.9047 320.011L64.1964 315.949C64.9662 315.365 65.6373 314.868 66.2099 314.458L67.9361 313.255C68.5144 312.864 69.1236 312.437 69.7638 311.976C69.0694 311.945 68.3731 311.925 67.6749 311.917C67.6749 311.917 66.9329 311.9 65.4489 311.867C65.4489 311.867 62.3909 311.658 56.2749 311.238L58.9047 320.011Z" fill="#005587"/>
<path d="M61.1672 348.893L79.884 339.834L76.5566 332.959L78.7049 331.919L86.4386 347.897L84.2903 348.937L81.0149 342.17L62.298 351.23L61.1672 348.893Z" fill="#005587"/>
<path d="M93.2132 359.388L94.6127 361.556L75.1371 374.128L73.7375 371.96L93.2132 359.388Z" fill="#005587"/>
<path d="M102.727 373.021L111.126 383.245L109.196 384.656L102.521 376.53L96.5271 381.454L102.502 388.727L100.681 390.223L94.706 382.95L88.286 388.224L95.1415 396.569L93.394 398.178L84.8152 387.736L102.727 373.021Z" fill="#005587"/>
<path d="M119.116 391.818L121.94 394.41L117.546 413.602L116.425 417.514L130.457 402.228L132.358 403.973L116.682 421.05L113.891 418.488L118.291 399.18L119.363 395.365L105.341 410.64L103.44 408.895L119.116 391.818Z" fill="#005587"/>
<path d="M135.97 435.363L147.445 418.021L141.076 413.807L142.393 411.816L157.196 421.612L155.879 423.603L149.61 419.454L138.135 436.795L135.97 435.363Z" fill="#005587"/>
<path d="M178.057 457.472L185.525 435.527L187.968 436.359L184.763 445.778L196.724 449.848L199.929 440.429L202.372 441.26L194.905 463.205L192.461 462.374L195.984 452.023L184.023 447.953L180.5 458.304L178.057 457.472Z" fill="#005587"/>
<path d="M215.609 444.578L228.638 446.884L228.09 449.21L217.734 447.378L216.382 455.016L225.651 456.656L225.24 458.977L215.972 457.337L214.524 465.518L225.159 467.4L224.877 469.759L211.57 467.404L215.609 444.578Z" fill="#005587"/>
<path d="M247.622 448.363L250.932 448.478L259.267 471.962L256.315 471.859L254.138 465.351L243.24 464.973L240.647 471.316L237.68 471.213L247.622 448.363ZM253.347 463.189L251.193 456.875C250.886 455.959 250.63 455.164 250.425 454.49L249.838 452.47C249.652 451.797 249.443 451.083 249.211 450.329C248.959 450.977 248.718 451.63 248.486 452.289C248.486 452.289 248.233 452.987 247.727 454.382C247.727 454.382 246.549 457.212 244.194 462.872L253.347 463.189Z" fill="#005587"/>
<path d="M273.673 471.277L271.089 448.241L273.654 447.953L275.968 468.588L286.538 467.403L286.703 469.816L273.673 471.277Z" fill="#005587"/>
<path d="M309.851 465.017L304.555 444.909L297.169 446.854L296.561 444.546L313.727 440.025L314.335 442.333L307.065 444.248L312.361 464.356L309.851 465.017Z" fill="#005587"/>
<path d="M335.321 456.934L325.919 435.745L328.278 434.698L332.313 443.793L343.862 438.668L339.827 429.574L342.186 428.527L351.587 449.716L349.229 450.763L344.794 440.768L333.245 445.893L337.68 455.887L335.321 456.934Z" fill="#005587"/>
<path d="M384.545 418.599C384.329 418.822 383.979 419.126 383.496 419.509L380.845 421.616L386.144 428.284L384.124 429.89L369.702 411.741L374.642 407.816C378.202 404.911 381.254 404.34 383.799 406.103C384.592 406.654 385.335 407.372 386.026 408.258C387.077 409.709 387.645 411.119 387.729 412.488C387.813 413.856 387.373 415.228 386.409 416.604L387.53 417.009C388.068 417.191 388.687 417.385 389.385 417.592L395.546 419.136L394.47 422.049C393.504 421.649 392.503 421.269 391.468 420.91L386.451 419.2C385.839 418.988 385.203 418.788 384.545 418.599ZM382.086 417.734C384.533 415.827 385.5 413.91 384.984 411.982C384.806 411.311 384.459 410.631 383.944 409.942C383.428 409.253 382.892 408.722 382.337 408.351C381.781 407.98 381.183 407.775 380.544 407.737C379.232 407.637 377.741 408.262 376.072 409.614L373.152 411.934L379.435 419.841L382.086 417.734Z" fill="#005587"/>
<path d="M391.248 393.439L400.351 383.837L401.991 385.577L394.756 393.209L400.385 398.545L406.861 391.715L408.571 393.336L402.095 400.167L408.125 405.883L415.555 398.046L417.369 399.58L408.07 409.388L391.248 393.439Z" fill="#005587"/>
<path d="M432.935 380.11C428.657 386.086 423.308 386.776 416.887 382.179C411.672 378.446 410.002 374.218 411.879 369.495C412.288 368.479 412.84 367.486 413.534 366.516C414.872 364.648 416.559 363.068 418.598 361.775L419.933 363.703C418.065 364.91 416.675 366.153 415.76 367.43C414.845 368.708 414.219 369.852 413.88 370.863C413.542 371.875 413.48 372.904 413.697 373.952C414.105 375.944 415.687 377.963 418.442 380.008C421.048 381.801 423.344 382.625 425.33 382.481C427.447 382.309 429.348 381.046 431.032 378.693C432.19 377.076 433.038 375.096 433.577 372.755L435.869 373.423C435.319 375.916 434.341 378.145 432.935 380.11Z" fill="#005587"/>
<path d="M433.789 357.139C432.109 356.296 430.731 355.307 429.654 354.171C428.577 353.036 427.797 351.807 427.314 350.486C426.335 347.78 426.574 344.974 428.032 342.068C429.571 339.001 431.681 337.123 434.364 336.433C437.011 335.747 440.028 336.253 443.415 337.952C446.712 339.607 448.849 341.813 449.823 344.572C450.776 347.264 450.521 350.067 449.058 352.983C447.591 355.907 445.516 357.748 442.834 358.505C440.128 359.262 437.114 358.806 433.789 357.139ZM435.007 354.779C436.38 355.479 437.68 355.931 438.907 356.135C440.135 356.339 441.262 356.304 442.29 356.029C444.359 355.476 445.948 354.048 447.059 351.746C448.169 349.488 448.319 347.361 447.507 345.363C446.665 343.293 444.857 341.585 442.084 340.239C436.448 337.5 432.413 338.558 429.979 343.411C428.868 345.625 428.75 347.724 429.623 349.708C430.501 351.706 432.296 353.396 435.007 354.779Z" fill="#005587"/>
<path d="M453.824 317.963C453.77 318.269 453.652 318.716 453.47 319.305L452.467 322.54L460.602 325.062L459.838 327.527L437.697 320.662L439.566 314.635C440.87 310.229 443.069 308.037 446.165 308.06C447.131 308.068 448.149 308.243 449.219 308.586C450.905 309.192 452.169 310.036 453.009 311.12C453.85 312.203 454.26 313.584 454.239 315.264L455.393 314.966C455.94 314.813 456.561 314.626 457.254 314.404L463.214 312.206L463.967 315.22C462.942 315.433 461.902 315.683 460.845 315.97L455.736 317.384C455.111 317.555 454.473 317.748 453.824 317.963ZM451.304 318.634C452.252 315.679 451.969 313.551 450.457 312.249C449.932 311.795 449.262 311.428 448.448 311.15C447.633 310.871 446.892 310.735 446.224 310.741C445.555 310.747 444.946 310.915 444.397 311.245C443.256 311.901 442.377 313.258 441.76 315.315L440.656 318.877L450.301 321.868L451.304 318.634Z" fill="#005587"/>
<path d="M468.078 296.96L445.152 293.53L446.216 286.419C447.06 280.784 449.806 277.716 454.456 277.215C455.927 277.063 457.543 277.118 459.303 277.382L459.908 277.472C463.36 277.989 465.885 279.327 467.482 281.487C469.096 283.669 469.644 286.496 469.124 289.968L468.078 296.96ZM466.144 294.062L466.808 289.621C467.207 286.956 466.732 284.788 465.383 283.118C464.086 281.506 462.129 280.505 459.513 280.113L458.908 280.023C455.762 279.612 453.373 279.918 451.742 280.941C450.033 282.013 448.965 283.975 448.538 286.827L447.865 291.326L466.144 294.062Z" fill="#005587"/>
<path fill-rule="evenodd" clip-rule="evenodd" d="M74.9808 74.9808C51.3609 98.6007 33.0737 125.725 20.1192 156.352C6.70641 188.064 0 221.28 0 256C0 290.72 6.70641 323.936 20.1192 355.648C33.0733 386.276 51.3605 413.4 74.9808 437.02C98.6026 460.642 125.726 478.929 156.352 491.882C188.066 505.294 221.282 512 256 512C290.72 512 323.936 505.294 355.648 491.882C386.277 478.926 413.401 460.639 437.02 437.02C460.643 413.396 478.93 386.272 491.882 355.648C505.294 323.934 512 290.718 512 256C512 221.279 505.294 188.063 491.882 156.352C478.926 125.724 460.639 98.5996 437.02 74.9807C413.399 51.361 386.274 33.0738 355.648 20.1192C323.937 6.7064 290.721 0 256 0C221.28 0 188.064 6.7064 156.352 20.1192C125.725 33.0735 98.6008 51.3607 74.9808 74.9808ZM5.05066 256C5.05066 221.963 11.6241 189.403 24.771 158.32C37.4694 128.297 55.3964 101.708 78.552 78.552C101.708 55.3965 128.297 37.4695 158.32 24.7709C189.402 11.6241 221.962 5.05064 256 5.05064C290.039 5.05064 322.599 11.6241 353.68 24.7709C383.702 37.4691 410.291 55.3962 433.447 78.5522C456.603 101.707 474.53 128.296 487.228 158.32C500.376 189.402 506.95 221.962 506.95 256C506.95 290.036 500.376 322.596 487.228 353.68C474.532 383.701 456.605 410.29 433.447 433.447C410.294 456.603 383.705 474.53 353.68 487.228C322.597 500.376 290.037 506.95 256 506.95C221.964 506.95 189.404 500.376 158.32 487.228C128.299 474.532 101.71 456.605 78.552 433.447C55.3962 410.293 37.4692 383.703 24.771 353.68C11.6241 322.597 5.05066 290.037 5.05066 256Z" fill="#005587"/>
</svg>
